<svg xmlns="http://www.w3.org/2000/svg" viewBox="0 0 370 248"><path d="M227.139 235.328l-6.361-11.652 2.36-1.816c1.3-.998 2.663-1.826 3.03-1.838.368-.012 1.606-1.538 2.75-3.39 2.847-4.606 2.634-9.483-.949-21.753-4.462-15.279-4.071-22.123 1.694-29.682 1.928-2.527 3.155-3.239 5.182-3.004l2.655.307.592 11.5c.401 7.785 1.489 14.874 3.366 21.946 2.194 8.261 2.623 11.503 2.051 15.5-1.365 9.543-1.284 10.022 1.741 10.37 3.014.347 3.323 1.203 1.626 4.5-2.981 5.79-12.147 20.683-12.723 20.674-.36-.006-3.515-5.254-7.014-11.662zm-96.132 2.087c-6.889-11.662-7.167-13.455-2.735-17.636 1.928-1.818 4.053-5.13 4.721-7.362 1.287-4.296 1.326-4.075-4.036-23.417-2.434-8.784-2.09-13.847 1.475-21.632 1.794-3.919 3.11-5.466 5.069-5.958 4.379-1.099 4.992.581 5.072 13.89.062 10.252.444 13.158 2.393 18.2 1.778 4.601 2.388 8.436 2.616 16.45.27 9.435.514 10.614 2.514 12.123 1.316.992 1.979 2.29 1.632 3.194-.948 2.47-11.724 19.613-12.713 20.224-.499.308-3.203-3.326-6.008-8.076zm52.2 5.835c-3.44-4.9-10.207-17.875-10.207-19.566 0-.929 1.107-1.924 2.54-2.283 3.457-.868 6.46-6.998 6.46-13.187 0-2.687-1.17-8.189-2.615-12.29-2.907-8.254-3.58-20.085-1.446-25.42 2.05-5.124 5.97-9.504 8.505-9.504 3.295 0 3.778 2.123 2.997 13.148-.643 9.062-.485 10.317 2.565 20.372 2.761 9.103 3.141 11.561 2.53 16.347-1.296 10.136-1.244 10.603 1.214 10.953 2.872.407 2.912 2.942.135 8.47-3.578 7.122-8.984 15.71-9.89 15.71-.472 0-1.727-1.238-2.788-2.75zM312.5 232.348c-4.96-2.6-12.26-10.364-14.383-15.297-2.628-6.11-3.67-14.149-2.192-16.91 1.322-2.471 4.44-2.718 8.075-.641 1.375.786 2.768 1.445 3.095 1.465.328.02.555-3.677.506-8.215l-.09-8.25 5.267-8.447c2.897-4.646 5.615-9.79 6.04-11.432.426-1.642 1.24-3.14 1.809-3.33 3.351-1.117 11.373 11.025 11.373 17.214 0 6.67 4.617 8.249 7.036 2.407 1.629-3.931 2.954-2.699 6.265 5.825 4.07 10.477 4.953 15.723 3.68 21.85-1.274 6.14-7.392 16.146-11.786 19.274-8.33 5.931-18.435 7.767-24.695 4.487zm14.093-5.552c6.037-4.137 7.895-10.018 4.958-15.697-1.488-2.878-7.958-9.099-9.463-9.099-1.456 0-2.852 2.347-4.04 6.794-.817 3.052-1.857 4.563-3.598 5.225-3.22 1.224-3.194 4.575.07 9.037 4.786 6.54 6.99 7.223 12.073 3.74zM52 231c0-.883-1.05-1.091-3.5-.694-3.75.609-4.463-.262-1.934-2.36 1.89-1.57 4.776-6.938 4.095-7.619-.268-.268-1.652.276-3.074 1.208-2.281 1.495-2.587 1.511-2.587.139 0-.856.456-1.838 1.014-2.183 1.601-.99 4.65-7.627 5.399-11.754.515-2.838.324-3.9-.775-4.322-3.674-1.41-12.851 6.9-14.008 12.686-.927 4.633-3 3.617-2.246-1.101.818-5.115-.402-5.091-3.3.064-2.11 3.754-2.416 3.945-4.013 2.5-.95-.86-2.247-1.564-2.88-1.564-1.393 0-2.633-4.404-1.83-6.498.38-.992 1.944-1.502 4.608-1.502 4.227 0 5.223-1.234 2.31-2.864-1.765-.987-1.897-.948 8.918-2.642 4.53-.71 9.803-3.31 9.803-4.834 0-2.37-7.421-4.66-15.104-4.66-5.203 0-6.954-.33-6.651-1.25.226-.687 1.389-1.394 2.583-1.57 4.014-.59 2.525-3.18-1.828-3.18-3.756 0-4-.179-4-2.929 0-2.811 2.167-6.071 4.037-6.071.491 0 2.38 1.304 4.195 2.899l3.302 2.899-.394-4.127c-.354-3.717-.232-3.992 1.233-2.776.895.742 1.627 2.26 1.627 3.37C37 182.957 46.123 192 48.838 192c4.625 0 3.39-7.901-2.426-15.527-3.126-4.098-2.696-5.36 1.001-2.938 3.248 2.128 3.504.37.587-4.035-1.093-1.65-1.99-3.28-1.993-3.62-.008-.75 13.984-2.222 14.662-1.545.261.262-.724 2.377-2.19 4.7l-2.667 4.223 3.607-.677 3.607-.677-3.198 4.538c-2.512 3.564-3.292 5.828-3.634 10.548-.283 3.922-.057 6.01.651 6.01 2.139 0 8.068-6.181 11.308-11.79l3.3-5.71.529 4 .529 4 1.942-3c1.068-1.65 2.005-3.114 2.082-3.254.077-.14 1.563.455 3.303 1.323 2.754 1.374 3.162 2.09 3.162 5.55v3.972l-3.385-.635c-4.235-.795-5.369.764-2.5 3.436l2.158 2.01-6.887-.1c-5.482-.08-7.65.357-10.636 2.147-2.062 1.237-3.75 2.643-3.75 3.124 0 2.004 6.897 4.288 14.271 4.726 4.274.253 8.013.852 8.31 1.33.295.48-.353.871-1.44.871-2.666 0-5.141 1.015-5.141 2.107 0 .491 2.025.893 4.5.893 4.482 0 4.5.014 4.5 3.525 0 2.798-.494 3.712-2.395 4.435-1.317.501-2.586 1.484-2.82 2.185-.247.742-1.216-.067-2.32-1.936-2.38-4.027-3.465-4.075-3.465-.15 0 3.957-1.115 3.17-4.825-3.403C64.318 207.595 58.936 202 56.923 202c-.508 0-.923 2.268-.923 5.04 0 4.858 1.665 9.205 5.644 14.739 1.62 2.253 1.607 2.267-1.068 1.25-5.232-1.99-5.945-.8-2.397 4 2.539 3.433 2.306 3.856-2.555 4.645-2.561.415-3.624.218-3.624-.674zm16-93.963c-51.488-.527-52.592-.58-57.289-2.748C.88 129.75-.549 119.923.348 63c.793-50.274 1.486-55.222 8.37-59.736C11.07 1.72 15.1 1.42 40.954.858 83.845-.072 326.898-.023 344.11.92c15.635.857 18.525 1.743 22.322 6.844 2.998 4.027 3.786 20.872 3.36 71.872l-.376 45.137-2.774 4.192c-5.136 7.762-.454 7.337-89.642 8.132-86.612.773-128.717.76-209-.06zM338.751 119.2c3.828-.475 6.93-1.464 8-2.552 1.667-1.694 1.643-1.865-.492-3.617-1.697-1.392-4.733-2-12.5-2.507-5.643-.367-76.204-.523-156.803-.347-138.296.304-146.697.422-149.25 2.095-1.488.975-2.706 2.383-2.706 3.128 0 3.424 3.093 4.092 21.901 4.729 25.4.86 284.057.037 291.85-.93zm1.47-24.03c13.049-1.382 11.229-5.466-3.048-6.838-4.77-.458-75.948-.833-158.173-.833-115.826 0-150.12.276-152.25 1.225-2.9 1.292-3.715 4.533-1.5 5.966.688.445 9.575 1.088 19.75 1.43 24.29.816 286.524-.028 295.22-.95zm4.267-23.179c3.965-2 4.279-4.318.801-5.923-5.242-2.42-37.41-2.999-169.289-3.044-129.005-.044-146.302.32-149.718 3.156-1.526 1.266-1.693 4.447-.279 5.32 3.164 1.956 27.566 2.274 164.497 2.143 132.379-.126 151.368-.33 153.988-1.652zM236.58 39.54c3.154-2.066 4.42-5.348 4.42-11.455 0-7.204-1.703-11.062-5.603-12.692-6.498-2.714-19.596-1.115-21.94 2.679-2.69 4.351-2.077 17.738.95 20.765 3.365 3.365 17.431 3.81 22.173.703zm-18.009-5.11c-2.095-2.096-1.997-7.719.179-10.216 1.295-1.485 3.532-2.175 8.6-2.648l6.848-.641-.671 5.288c-.37 2.908-.877 6.022-1.129 6.919-.827 2.95-11.2 3.924-13.827 1.298zm64.922 5.577c2.067-1.715 3.495-7.507 3.501-14.2.004-4.56-.468-6.245-2.373-8.46-2.095-2.436-3.221-2.815-9.41-3.164-12.928-.73-17.211 2.533-17.211 13.12 0 9.56 1.748 12.15 9.5 14.085 3.426.855 14.445-.097 15.993-1.38zm-18.089-4.712c-3.128-2.266-2.015-12.361 1.574-14.282 1.04-.557 3.912-1.012 6.384-1.012 3.663 0 4.876.487 6.565 2.635 2.705 3.438 2.623 6.614-.258 9.963-1.883 2.19-3.37 2.784-7.75 3.1-2.98.215-5.912.033-6.515-.404zm64.238 4.205c5.109-3.347 5.656-17.656.858-22.453-2.346-2.346-3.243-2.546-11.442-2.546-8 0-9.153.24-11.437 2.386-2.92 2.744-4.186 8.81-3.135 15.03.885 5.24 3.186 8.023 7.538 9.12 4.698 1.184 14.812.302 17.618-1.537zm-18.646-5.004c-1.844-2.221-.744-11.475 1.564-13.163 2.888-2.112 11.067-1.705 13.44.668 2.145 2.145 2.637 6.942 1.021 9.96-1.983 3.706-13.537 5.533-16.025 2.535z"/></svg>