<svg id="_1" data-name="1" xmlns="http://www.w3.org/2000/svg" viewBox="0 0 283.464 76.348"><defs><style>.cls-1{fill:#111;fill-rule:evenodd}</style></defs><title>Logo</title><path class="cls-1" d="M20.831 13.248L0 86.729h14.333l5.064-19.4h19.685l5.256 19.4h14.811L38.6 13.248zM25.8 39.812c1.051-4.3 2.294-10.32 3.249-14.907h.287c.956 4.491 2.2 10.416 3.345 15l4.4 16.722H21.4l4.4-16.818zm43.116 2.962h.384c2.484-6.88 8.218-10.415 13.187-10.415a14.765 14.765 0 0 1 3.153.287v13.472a20 20 0 0 0-3.631-.287c-6.4 0-11.275 4.3-11.275 13.378v27.52H56.589v-36.6c0-6.593-.191-11.848-.382-16.626h12.135l.573 9.269zm8.525-9.269v10.416h6.976v24.557c0 5.924.287 19.207 15.575 19.207a28.488 28.488 0 0 0 9.46-1.242l-.191-10.8a20.491 20.491 0 0 1-4.587.477c-4.3 0-6.306-2.675-6.306-9.078V43.921h11.753V33.506H98.367V19.65l-13.951 4.109v9.747zm30.885 52.937V14.2a104.763 104.763 0 0 1 18.633-1.529c8.886 0 15.193 1.147 20.257 4.682a16.257 16.257 0 0 1 7.166 13.855c0 6.689-3.917 12.9-11.753 15.862v.382c8.218 2.1 14.333 8.6 14.333 17.965a20.2 20.2 0 0 1-6.689 15.1C145.305 85.009 137.087 87.4 124 87.4a115.527 115.527 0 0 1-15.671-.955zm14.046-62.779v19.493h5.16c8.027 0 12.8-4.3 12.8-10.32 0-7.262-5.447-9.651-11.753-9.651a29.117 29.117 0 0 0-6.211.478zm5.256 29.813h-5.256v22.933a29.329 29.329 0 0 0 5.638.382c7.644 0 14.142-3.44 14.142-11.753 0-8.5-7.263-11.562-14.524-11.562zm40.631-10.7l-.573-9.269H155.55c.191 4.778.382 10.033.382 16.626v36.6h14.142V59.209c0-9.078 4.873-13.378 11.276-13.378a20 20 0 0 1 3.631.287V32.646a14.762 14.762 0 0 0-3.153-.287c-4.969 0-10.7 3.536-13.186 10.415zm16.169 3.344l-2.675-9.173a37.454 37.454 0 0 1 18.447-4.493c16.531 0 21.022 10.511 21.022 22.169v19.493a80.321 80.321 0 0 0 .764 12.613h-12.713l-.86-5.542h-.287c-3.058 4.2-8.218 6.593-14.142 6.593-9.842 0-15.957-7.358-15.957-15.958 0-13.664 12.135-20.066 29.049-20.066 0-5.255-1.816-9.269-9.556-9.269a25.942 25.942 0 0 0-13.091 3.631zm23.029 22.36v-7.646c-7.644 0-15.575 1.815-15.575 9.555 0 5.064 3.153 7.262 6.689 7.262a8.85 8.85 0 0 0 8.886-9.173zm29.643-49.5a7.6 7.6 0 0 0-15.193 0 7.6 7.6 0 0 0 15.193 0zm-14.62 14.526v53.223h14.142V33.506zm28.02 7.182l-.669-7.182H237.6c.191 4.7.382 9.762.382 15.989v37.234h14.142V55.053c0-8.074 5.256-11.036 9.078-11.036 6.02 0 8.122 5.16 8.122 11.657v31.055h14.142V54.145c0-14.907-7.549-21.691-17.3-21.691a17.659 17.659 0 0 0-15.384 8.234z" transform="translate(0 -11.432)"/></svg>